<mxfile host="65bd71144e">
    <diagram id="x8zwdynMmzNLekIl9Ej9" name="NFA">
        <mxGraphModel dx="880" dy="860" grid="1" gridSize="10" guides="1" tooltips="1" connect="1" arrows="1" fold="1" page="1" pageScale="1" pageWidth="850" pageHeight="1100" math="0" shadow="0">
            <root>
                <mxCell id="0"/>
                <mxCell id="1" parent="0"/>
                <mxCell id="SdkXTULCBVPO8OQc4LqG-1" value="&lt;div style=&quot;color: rgb(225, 228, 232); background-color: rgb(36, 41, 46); font-family: Consolas, &amp;quot;Courier New&amp;quot;, monospace; font-size: 14px; line-height: 20px;&quot;&gt;^a?(b*(ba)*)*$|^(ab)*a?b*$&lt;/div&gt;" style="text;html=1;align=center;verticalAlign=middle;resizable=0;points=[];autosize=1;strokeColor=none;fillColor=none;fontSize=14;" vertex="1" parent="1">
                    <mxGeometry x="150" y="30" width="220" height="30" as="geometry"/>
                </mxCell>
                <mxCell id="SdkXTULCBVPO8OQc4LqG-4" style="edgeStyle=none;html=1;entryX=0;entryY=0.5;entryDx=0;entryDy=0;fontSize=14;" edge="1" parent="1" target="SdkXTULCBVPO8OQc4LqG-3">
                    <mxGeometry relative="1" as="geometry">
                        <mxPoint x="120" y="488" as="targetPoint"/>
                        <mxPoint x="40" y="488" as="sourcePoint"/>
                    </mxGeometry>
                </mxCell>
                <mxCell id="SdkXTULCBVPO8OQc4LqG-5" style="edgeStyle=none;html=1;exitX=0;exitY=0;exitDx=0;exitDy=0;fontSize=14;" edge="1" parent="1" source="SdkXTULCBVPO8OQc4LqG-3" target="MG_2QwPEroEweYGiVqV0-1">
                    <mxGeometry relative="1" as="geometry">
                        <mxPoint x="140" y="420" as="targetPoint"/>
                    </mxGeometry>
                </mxCell>
                <mxCell id="SdkXTULCBVPO8OQc4LqG-13" value="ε" style="edgeLabel;html=1;align=center;verticalAlign=middle;resizable=0;points=[];fontSize=14;" vertex="1" connectable="0" parent="SdkXTULCBVPO8OQc4LqG-5">
                    <mxGeometry x="-0.3672" y="-3" relative="1" as="geometry">
                        <mxPoint x="-15" y="-20" as="offset"/>
                    </mxGeometry>
                </mxCell>
                <mxCell id="SdkXTULCBVPO8OQc4LqG-6" style="edgeStyle=none;html=1;exitX=0;exitY=1;exitDx=0;exitDy=0;fontSize=14;" edge="1" parent="1" source="SdkXTULCBVPO8OQc4LqG-3" target="SdkXTULCBVPO8OQc4LqG-11">
                    <mxGeometry relative="1" as="geometry">
                        <mxPoint x="360" y="578" as="targetPoint"/>
                    </mxGeometry>
                </mxCell>
                <mxCell id="SdkXTULCBVPO8OQc4LqG-9" value="ε" style="edgeLabel;html=1;align=center;verticalAlign=middle;resizable=0;points=[];fontSize=14;" vertex="1" connectable="0" parent="SdkXTULCBVPO8OQc4LqG-6">
                    <mxGeometry x="0.2891" relative="1" as="geometry">
                        <mxPoint x="-7" y="-8" as="offset"/>
                    </mxGeometry>
                </mxCell>
                <mxCell id="SdkXTULCBVPO8OQc4LqG-3" value="1" style="ellipse;whiteSpace=wrap;html=1;aspect=fixed;shadow=0;labelBorderColor=none;gradientColor=none;fontSize=14;" vertex="1" parent="1">
                    <mxGeometry x="200" y="448" width="80" height="80" as="geometry"/>
                </mxCell>
                <mxCell id="SdkXTULCBVPO8OQc4LqG-10" style="edgeStyle=none;html=1;fontSize=14;" edge="1" parent="1" source="SdkXTULCBVPO8OQc4LqG-7" target="SdkXTULCBVPO8OQc4LqG-16">
                    <mxGeometry relative="1" as="geometry">
                        <mxPoint x="250" y="278" as="targetPoint"/>
                    </mxGeometry>
                </mxCell>
                <mxCell id="SdkXTULCBVPO8OQc4LqG-17" value="B" style="edgeLabel;html=1;align=center;verticalAlign=middle;resizable=0;points=[];fontSize=14;" vertex="1" connectable="0" parent="SdkXTULCBVPO8OQc4LqG-10">
                    <mxGeometry x="-0.2415" y="2" relative="1" as="geometry">
                        <mxPoint x="14" as="offset"/>
                    </mxGeometry>
                </mxCell>
                <mxCell id="SdkXTULCBVPO8OQc4LqG-7" value="a" style="ellipse;shape=doubleEllipse;whiteSpace=wrap;html=1;aspect=fixed;shadow=0;fontFamily=Helvetica;fontSize=14;fontColor=default;align=center;strokeColor=default;fillColor=default;gradientColor=none;" vertex="1" parent="1">
                    <mxGeometry x="90" y="238" width="80" height="80" as="geometry"/>
                </mxCell>
                <mxCell id="SdkXTULCBVPO8OQc4LqG-15" value="ε" style="edgeStyle=none;html=1;fontSize=14;" edge="1" parent="1" source="SdkXTULCBVPO8OQc4LqG-11" target="SdkXTULCBVPO8OQc4LqG-14">
                    <mxGeometry relative="1" as="geometry"/>
                </mxCell>
                <mxCell id="SdkXTULCBVPO8OQc4LqG-42" value="ε" style="edgeStyle=none;curved=1;sketch=0;html=1;fontSize=14;" edge="1" parent="1" source="SdkXTULCBVPO8OQc4LqG-11">
                    <mxGeometry relative="1" as="geometry">
                        <mxPoint x="138.43999999999994" y="800.0000000000002" as="targetPoint"/>
                    </mxGeometry>
                </mxCell>
                <mxCell id="SdkXTULCBVPO8OQc4LqG-11" value="2" style="ellipse;whiteSpace=wrap;html=1;aspect=fixed;shadow=0;labelBorderColor=none;gradientColor=none;dashed=1;fontSize=14;" vertex="1" parent="1">
                    <mxGeometry x="98.44" y="630" width="80" height="80" as="geometry"/>
                </mxCell>
                <mxCell id="SdkXTULCBVPO8OQc4LqG-36" value="B" style="edgeStyle=none;curved=1;sketch=0;html=1;fontSize=14;" edge="1" parent="1" source="SdkXTULCBVPO8OQc4LqG-40" target="SdkXTULCBVPO8OQc4LqG-11">
                    <mxGeometry x="-0.3927" y="-33" relative="1" as="geometry">
                        <Array as="points">
                            <mxPoint x="420" y="700"/>
                        </Array>
                        <mxPoint y="1" as="offset"/>
                    </mxGeometry>
                </mxCell>
                <mxCell id="SdkXTULCBVPO8OQc4LqG-41" value="A" style="edgeStyle=none;curved=1;sketch=0;html=1;fontSize=14;" edge="1" parent="1" source="SdkXTULCBVPO8OQc4LqG-14" target="SdkXTULCBVPO8OQc4LqG-40">
                    <mxGeometry relative="1" as="geometry"/>
                </mxCell>
                <mxCell id="SdkXTULCBVPO8OQc4LqG-14" value="5" style="ellipse;whiteSpace=wrap;html=1;aspect=fixed;shadow=0;labelBorderColor=none;gradientColor=none;dashed=1;fontSize=14;" vertex="1" parent="1">
                    <mxGeometry x="270" y="520" width="80" height="80" as="geometry"/>
                </mxCell>
                <mxCell id="SdkXTULCBVPO8OQc4LqG-19" style="edgeStyle=none;sketch=0;html=1;curved=1;entryX=0;entryY=0.5;entryDx=0;entryDy=0;exitX=0;exitY=0;exitDx=0;exitDy=0;fontSize=14;" edge="1" parent="1" source="SdkXTULCBVPO8OQc4LqG-16" target="SdkXTULCBVPO8OQc4LqG-18">
                    <mxGeometry relative="1" as="geometry">
                        <Array as="points">
                            <mxPoint x="240" y="220"/>
                        </Array>
                    </mxGeometry>
                </mxCell>
                <mxCell id="SdkXTULCBVPO8OQc4LqG-21" value="ε" style="edgeLabel;html=1;align=center;verticalAlign=middle;resizable=0;points=[];fontSize=14;" vertex="1" connectable="0" parent="SdkXTULCBVPO8OQc4LqG-19">
                    <mxGeometry x="0.1749" y="-20" relative="1" as="geometry">
                        <mxPoint x="-1" y="-8" as="offset"/>
                    </mxGeometry>
                </mxCell>
                <mxCell id="SdkXTULCBVPO8OQc4LqG-24" value="ε" style="edgeStyle=none;curved=1;sketch=0;html=1;fontSize=14;" edge="1" parent="1" source="SdkXTULCBVPO8OQc4LqG-16" target="SdkXTULCBVPO8OQc4LqG-23">
                    <mxGeometry relative="1" as="geometry"/>
                </mxCell>
                <mxCell id="SdkXTULCBVPO8OQc4LqG-16" value="" style="ellipse;whiteSpace=wrap;html=1;aspect=fixed;shadow=0;labelBorderColor=none;sketch=0;gradientColor=none;fontSize=14;" vertex="1" parent="1">
                    <mxGeometry x="290" y="238" width="80" height="80" as="geometry"/>
                </mxCell>
                <mxCell id="SdkXTULCBVPO8OQc4LqG-20" style="edgeStyle=none;sketch=0;html=1;curved=1;exitX=1;exitY=0.5;exitDx=0;exitDy=0;entryX=1;entryY=0;entryDx=0;entryDy=0;fontSize=14;" edge="1" parent="1" source="SdkXTULCBVPO8OQc4LqG-18" target="SdkXTULCBVPO8OQc4LqG-16">
                    <mxGeometry relative="1" as="geometry">
                        <mxPoint x="370" y="278" as="targetPoint"/>
                        <Array as="points">
                            <mxPoint x="410" y="200"/>
                        </Array>
                    </mxGeometry>
                </mxCell>
                <mxCell id="SdkXTULCBVPO8OQc4LqG-22" value="B" style="edgeLabel;html=1;align=center;verticalAlign=middle;resizable=0;points=[];fontSize=14;" vertex="1" connectable="0" parent="SdkXTULCBVPO8OQc4LqG-20">
                    <mxGeometry x="-0.3114" y="-10" relative="1" as="geometry">
                        <mxPoint as="offset"/>
                    </mxGeometry>
                </mxCell>
                <mxCell id="SdkXTULCBVPO8OQc4LqG-18" value="" style="ellipse;whiteSpace=wrap;html=1;aspect=fixed;shadow=0;labelBorderColor=none;sketch=0;gradientColor=none;fontSize=14;dashed=1;" vertex="1" parent="1">
                    <mxGeometry x="290" y="100" width="80" height="80" as="geometry"/>
                </mxCell>
                <mxCell id="SdkXTULCBVPO8OQc4LqG-26" value="ε" style="edgeStyle=none;curved=1;sketch=0;html=1;fontSize=14;" edge="1" parent="1" source="SdkXTULCBVPO8OQc4LqG-23" target="SdkXTULCBVPO8OQc4LqG-25">
                    <mxGeometry relative="1" as="geometry">
                        <Array as="points">
                            <mxPoint x="490" y="190"/>
                        </Array>
                    </mxGeometry>
                </mxCell>
                <mxCell id="SdkXTULCBVPO8OQc4LqG-23" value="" style="ellipse;whiteSpace=wrap;html=1;aspect=fixed;shadow=0;labelBorderColor=none;sketch=0;fontSize=14;gradientColor=none;" vertex="1" parent="1">
                    <mxGeometry x="460" y="238" width="80" height="80" as="geometry"/>
                </mxCell>
                <mxCell id="SdkXTULCBVPO8OQc4LqG-29" value="A" style="edgeStyle=none;curved=1;sketch=0;html=1;fontSize=14;" edge="1" parent="1" source="SdkXTULCBVPO8OQc4LqG-25" target="SdkXTULCBVPO8OQc4LqG-28">
                    <mxGeometry relative="1" as="geometry">
                        <Array as="points">
                            <mxPoint x="630" y="70"/>
                        </Array>
                    </mxGeometry>
                </mxCell>
                <mxCell id="SdkXTULCBVPO8OQc4LqG-25" value="" style="ellipse;whiteSpace=wrap;html=1;aspect=fixed;shadow=0;labelBorderColor=none;sketch=0;fontSize=14;gradientColor=none;dashed=1;" vertex="1" parent="1">
                    <mxGeometry x="480" y="90" width="80" height="80" as="geometry"/>
                </mxCell>
                <mxCell id="SdkXTULCBVPO8OQc4LqG-31" value="B" style="edgeStyle=none;curved=1;sketch=0;html=1;fontSize=14;" edge="1" parent="1" source="SdkXTULCBVPO8OQc4LqG-28" target="SdkXTULCBVPO8OQc4LqG-30">
                    <mxGeometry relative="1" as="geometry">
                        <Array as="points">
                            <mxPoint x="720" y="180"/>
                        </Array>
                    </mxGeometry>
                </mxCell>
                <mxCell id="SdkXTULCBVPO8OQc4LqG-28" value="" style="ellipse;whiteSpace=wrap;html=1;aspect=fixed;shadow=0;labelBorderColor=none;sketch=0;fontSize=14;gradientColor=none;dashed=1;" vertex="1" parent="1">
                    <mxGeometry x="670" y="90" width="80" height="80" as="geometry"/>
                </mxCell>
                <mxCell id="SdkXTULCBVPO8OQc4LqG-34" style="edgeStyle=none;curved=1;sketch=0;html=1;fontSize=14;" edge="1" parent="1" source="SdkXTULCBVPO8OQc4LqG-30" target="SdkXTULCBVPO8OQc4LqG-23">
                    <mxGeometry relative="1" as="geometry">
                        <Array as="points">
                            <mxPoint x="630" y="350"/>
                        </Array>
                    </mxGeometry>
                </mxCell>
                <mxCell id="SdkXTULCBVPO8OQc4LqG-30" value="" style="ellipse;whiteSpace=wrap;html=1;aspect=fixed;shadow=0;labelBorderColor=none;sketch=0;fontSize=14;gradientColor=none;dashed=1;" vertex="1" parent="1">
                    <mxGeometry x="660" y="220" width="80" height="80" as="geometry"/>
                </mxCell>
                <mxCell id="SdkXTULCBVPO8OQc4LqG-40" value="6" style="ellipse;whiteSpace=wrap;html=1;aspect=fixed;shadow=0;labelBorderColor=none;gradientColor=none;dashed=1;fontSize=14;" vertex="1" parent="1">
                    <mxGeometry x="450" y="520" width="80" height="80" as="geometry"/>
                </mxCell>
                <mxCell id="SdkXTULCBVPO8OQc4LqG-49" value="A" style="edgeStyle=none;curved=1;sketch=0;html=1;fontSize=14;" edge="1" parent="1" source="SdkXTULCBVPO8OQc4LqG-43" target="SdkXTULCBVPO8OQc4LqG-45">
                    <mxGeometry relative="1" as="geometry"/>
                </mxCell>
                <mxCell id="SdkXTULCBVPO8OQc4LqG-43" value="3" style="ellipse;whiteSpace=wrap;html=1;aspect=fixed;shadow=0;labelBorderColor=none;gradientColor=none;fontSize=14;" vertex="1" parent="1">
                    <mxGeometry x="98.44" y="800" width="80" height="80" as="geometry"/>
                </mxCell>
                <mxCell id="SdkXTULCBVPO8OQc4LqG-50" value="ε" style="edgeStyle=none;curved=1;sketch=0;html=1;fontSize=14;" edge="1" parent="1" source="SdkXTULCBVPO8OQc4LqG-45" target="SdkXTULCBVPO8OQc4LqG-51">
                    <mxGeometry relative="1" as="geometry">
                        <mxPoint x="510" y="840" as="targetPoint"/>
                    </mxGeometry>
                </mxCell>
                <mxCell id="SdkXTULCBVPO8OQc4LqG-45" value="4" style="ellipse;shape=doubleEllipse;whiteSpace=wrap;html=1;aspect=fixed;shadow=0;fontFamily=Helvetica;fontSize=14;fontColor=default;align=center;strokeColor=default;fillColor=default;gradientColor=none;sketch=0;" vertex="1" parent="1">
                    <mxGeometry x="345" y="800" width="80" height="80" as="geometry"/>
                </mxCell>
                <mxCell id="SdkXTULCBVPO8OQc4LqG-57" value="B" style="edgeStyle=none;curved=1;sketch=0;html=1;fontSize=14;" edge="1" parent="1" source="SdkXTULCBVPO8OQc4LqG-51" target="SdkXTULCBVPO8OQc4LqG-56">
                    <mxGeometry x="-0.1198" y="-7" relative="1" as="geometry">
                        <Array as="points">
                            <mxPoint x="570" y="700"/>
                        </Array>
                        <mxPoint as="offset"/>
                    </mxGeometry>
                </mxCell>
                <mxCell id="SdkXTULCBVPO8OQc4LqG-51" value="8" style="ellipse;whiteSpace=wrap;html=1;aspect=fixed;shadow=0;labelBorderColor=none;sketch=0;fontSize=14;gradientColor=none;" vertex="1" parent="1">
                    <mxGeometry x="550" y="800" width="80" height="80" as="geometry"/>
                </mxCell>
                <mxCell id="SdkXTULCBVPO8OQc4LqG-59" style="edgeStyle=none;curved=1;sketch=0;html=1;fontSize=14;" edge="1" parent="1" source="SdkXTULCBVPO8OQc4LqG-56" target="SdkXTULCBVPO8OQc4LqG-51">
                    <mxGeometry relative="1" as="geometry">
                        <Array as="points">
                            <mxPoint x="740" y="780"/>
                        </Array>
                    </mxGeometry>
                </mxCell>
                <mxCell id="SdkXTULCBVPO8OQc4LqG-56" value="9" style="ellipse;whiteSpace=wrap;html=1;aspect=fixed;shadow=0;labelBorderColor=none;sketch=0;fontSize=14;gradientColor=none;dashed=1;" vertex="1" parent="1">
                    <mxGeometry x="640" y="610" width="80" height="80" as="geometry"/>
                </mxCell>
                <mxCell id="MG_2QwPEroEweYGiVqV0-2" value="A" style="edgeStyle=none;curved=1;sketch=0;html=1;exitX=0.5;exitY=0;exitDx=0;exitDy=0;fontSize=14;" edge="1" parent="1" source="MG_2QwPEroEweYGiVqV0-1" target="SdkXTULCBVPO8OQc4LqG-7">
                    <mxGeometry relative="1" as="geometry"/>
                </mxCell>
                <mxCell id="MG_2QwPEroEweYGiVqV0-1" value="a" style="ellipse;whiteSpace=wrap;html=1;aspect=fixed;shadow=0;labelBorderColor=none;gradientColor=none;perimeterSpacing=0;fontSize=14;" vertex="1" parent="1">
                    <mxGeometry x="50" y="368" width="80" height="80" as="geometry"/>
                </mxCell>
            </root>
        </mxGraphModel>
    </diagram>
    <diagram id="tfHxHhs8_eqmDbX1ey2Y" name="DFA">
        <mxGraphModel dx="569" dy="556" grid="1" gridSize="10" guides="1" tooltips="1" connect="1" arrows="1" fold="1" page="1" pageScale="1" pageWidth="850" pageHeight="1100" background="#ffffff" math="0" shadow="0">
            <root>
                <mxCell id="0"/>
                <mxCell id="1" parent="0"/>
                <mxCell id="16" value="S1" style="ellipse;whiteSpace=wrap;html=1;fontStyle=1;shadow=0;gradientColor=none;labelBorderColor=none;" vertex="1" parent="1">
                    <mxGeometry x="310" y="99" width="100" height="100" as="geometry"/>
                </mxCell>
                <mxCell id="15" value="S2" style="ellipse;whiteSpace=wrap;html=1;fontStyle=1;shadow=0;gradientColor=none;labelBorderColor=none;" vertex="1" parent="1">
                    <mxGeometry x="310" y="230" width="100" height="100" as="geometry"/>
                </mxCell>
                <mxCell id="7" style="edgeStyle=none;html=1;entryX=0.03;entryY=0.653;entryDx=0;entryDy=0;entryPerimeter=0;" edge="1" parent="1" source="2" target="16">
                    <mxGeometry relative="1" as="geometry"/>
                </mxCell>
                <mxCell id="8" value="A" style="edgeLabel;html=1;align=center;verticalAlign=middle;resizable=0;points=[];fontStyle=1" vertex="1" connectable="0" parent="7">
                    <mxGeometry x="0.2167" relative="1" as="geometry">
                        <mxPoint x="-13" as="offset"/>
                    </mxGeometry>
                </mxCell>
                <mxCell id="10" style="edgeStyle=none;html=1;" edge="1" parent="1" source="2" target="15">
                    <mxGeometry relative="1" as="geometry"/>
                </mxCell>
                <mxCell id="11" value="B" style="edgeLabel;html=1;align=center;verticalAlign=middle;resizable=0;points=[];fontStyle=1" vertex="1" connectable="0" parent="10">
                    <mxGeometry x="0.1833" y="2" relative="1" as="geometry">
                        <mxPoint x="-13" as="offset"/>
                    </mxGeometry>
                </mxCell>
                <mxCell id="2" value="S0" style="ellipse;whiteSpace=wrap;html=1;fontStyle=1" vertex="1" parent="1">
                    <mxGeometry x="110" y="180" width="80" height="80" as="geometry"/>
                </mxCell>
                <mxCell id="5" style="edgeStyle=none;html=1;" edge="1" parent="1" source="3" target="2">
                    <mxGeometry relative="1" as="geometry"/>
                </mxCell>
                <mxCell id="3" value="Start" style="text;html=1;align=center;verticalAlign=middle;resizable=0;points=[];autosize=1;strokeColor=none;fillColor=none;fontStyle=1" vertex="1" parent="1">
                    <mxGeometry x="10" y="205" width="50" height="30" as="geometry"/>
                </mxCell>
                <mxCell id="12" value="B" style="edgeStyle=none;html=1;fontStyle=1;exitX=0;exitY=1;exitDx=0;exitDy=0;entryX=0;entryY=0;entryDx=0;entryDy=0;" edge="1" parent="1" source="16" target="15">
                    <mxGeometry relative="1" as="geometry"/>
                </mxCell>
                <mxCell id="6" value="S1" style="ellipse;whiteSpace=wrap;html=1;fontStyle=1" vertex="1" parent="1">
                    <mxGeometry x="320" y="110" width="80" height="80" as="geometry"/>
                </mxCell>
                <mxCell id="13" value="A" style="edgeStyle=none;html=1;entryX=1;entryY=1;entryDx=0;entryDy=0;fontStyle=1;exitX=1;exitY=0;exitDx=0;exitDy=0;" edge="1" parent="1" source="15" target="16">
                    <mxGeometry relative="1" as="geometry"/>
                </mxCell>
                <mxCell id="14" value="B" style="edgeStyle=none;html=1;fontStyle=1;exitX=0.5;exitY=1;exitDx=0;exitDy=0;" edge="1" parent="1" source="15">
                    <mxGeometry relative="1" as="geometry">
                        <mxPoint x="360" y="330" as="targetPoint"/>
                        <Array as="points">
                            <mxPoint x="340" y="370"/>
                            <mxPoint x="370" y="370"/>
                        </Array>
                    </mxGeometry>
                </mxCell>
                <mxCell id="9" value="S2" style="ellipse;whiteSpace=wrap;html=1;fontStyle=1;shadow=0;gradientColor=none;labelBorderColor=none;" vertex="1" parent="1">
                    <mxGeometry x="320" y="240" width="80" height="80" as="geometry"/>
                </mxCell>
            </root>
        </mxGraphModel>
    </diagram>
</mxfile>